<?xml version="1.0" encoding="utf-8"?>
<!-- Generated by IcoMoon.io -->
<svg version="1.1" xmlns="http://www.w3.org/2000/svg" xmlns:xlink="http://www.w3.org/1999/xlink" width="752" height="32" viewBox="0 0 752 32">
<svg id="icon-sign-it" width="32" height="32" viewBox="0 0 32 32" x="0" y="0">
<path fill="#fff" d="M32 16c0 8.837-7.163 16-16 16s-16-7.163-16-16c0-8.837 7.163-16 16-16s16 7.163 16 16z"></path>
<path fill="#f8dfcd" d="M20.456 6.887c-0.248 0-0.523 0.117-0.746 0.343l-10.344 10.422c-0.595 0.6-1.010 1.556-1.262 2.337 0.74-0.239 1.699-0.645 2.321-1.271l10.343-10.421c0.384-0.387 0.453-0.925 0.156-1.224-0.117-0.115-0.277-0.186-0.454-0.186-0.005 0-0.011 0-0.016 0h0.001zM7.152 21.642c-0.18 0-0.355-0.072-0.484-0.203-0.124-0.125-0.201-0.298-0.201-0.488 0-0.042 0.004-0.084 0.011-0.124l-0.001 0.004c0.019-0.11 0.483-2.708 1.92-4.157l10.343-10.421c0.927-0.935 2.311-1.005 3.152-0.157 0.84 0.848 0.771 2.244-0.155 3.179l-10.344 10.422c-1.438 1.448-4.016 1.916-4.125 1.935-0.035 0.006-0.075 0.010-0.116 0.010-0 0-0.001 0-0.001 0h0z"></path>
<path fill="#f8dfcd" d="M18.012 8.292l2.15 2.15-9.048 9.049-2.15-2.15z"></path>
<path fill="#e68460" d="M20.373 12.187l-3.861-3.624c-0.122-0.125-0.197-0.296-0.197-0.484s0.075-0.359 0.197-0.484l-0 0c0.121-0.124 0.289-0.201 0.476-0.201s0.355 0.077 0.476 0.2l0 0 3.861 3.623 1.041-1.059c0.123-0.126 0.295-0.204 0.485-0.204s0.362 0.078 0.485 0.204l0 0c0.124 0.127 0.201 0.301 0.201 0.492s-0.077 0.366-0.201 0.493l0-0-4.923 5.006c-0.123 0.126-0.295 0.204-0.485 0.204s-0.362-0.078-0.485-0.204l-0-0c-0.124-0.127-0.201-0.301-0.201-0.493s0.077-0.366 0.201-0.493l-0 0 2.93-2.977z"></path>
<path fill="#f8dfcd" d="M10.607 19.242l-2.13-1.769c-0.29-0.256-0.29-0.671 0-0.927s0.758-0.256 1.047 0l2.13 1.768c0.29 0.256 0.29 0.672 0 0.927-0.138 0.119-0.318 0.192-0.516 0.192-0.003 0-0.005 0-0.008-0h0c-0.002 0-0.005 0-0.007 0-0.198 0-0.379-0.073-0.517-0.193l0.001 0.001z"></path>
<path fill="#da411a" d="M17.654 25.809c-0.41-0.253-0.59-0.837-0.43-1.389l0.541-1.863c-0.661 0.628-1.261 1.307-1.799 2.034l-0.030 0.042c-0.252 0.343-0.655 0.483-1.022 0.362-0.427-0.142-0.685-0.583-0.658-1.122 0.019-0.379 0.033-0.762 0.042-1.145-0.399 0.544-0.748 0.991-1.109 1.428l0.044-0.055c-0.266 0.326-0.675 0.443-1.040 0.297-0.387-0.155-0.623-0.563-0.616-1.043-1.2 0.625-2.23 1.289-3.192 2.036l0.047-0.035c-0.101 0.077-0.228 0.124-0.367 0.124-0.185 0-0.35-0.083-0.461-0.214l-0.001-0.001c-0.080-0.095-0.128-0.219-0.128-0.354 0-0.181 0.087-0.342 0.221-0.443l0.001-0.001c1.095-0.852 2.329-1.629 3.639-2.278l0.127-0.057c0.11-0.055 0.24-0.088 0.378-0.088 0.181 0 0.348 0.056 0.487 0.152l-0.003-0.002c0.216 0.147 0.362 0.381 0.421 0.655 0.302-0.382 0.645-0.842 0.975-1.312l0.068-0.102c0.244-0.351 0.627-0.5 1.002-0.389 0.426 0.126 0.7 0.552 0.695 1.086-0.004 0.445-0.013 0.869-0.029 1.292l0.002-0.079c0.641-0.794 1.329-1.5 2.077-2.137l0.022-0.018c0.298-0.25 0.697-0.288 1.016-0.093 0.413 0.251 0.596 0.835 0.435 1.39l-0.53 1.823c0.142-0.145 0.285-0.298 0.43-0.454 0.797-0.852 1.62-1.735 2.756-1.858 0.922-0.102 1.768 0.344 2.544 0.84 0.271 0.173 0.346 0.526 0.165 0.787-0.18 0.262-0.546 0.333-0.817 0.16-0.59-0.378-1.212-0.715-1.759-0.659-0.691 0.076-1.333 0.762-2.012 1.489-0.358 0.384-0.728 0.779-1.131 1.11-0.152 0.127-0.348 0.205-0.563 0.207h-0c-0.152 0-0.303-0.041-0.44-0.125z"></path>
</svg>
<svg id="icon-icon-hiw-save-print-share" width="32" height="32" viewBox="0 0 32 32" x="48" y="0">
<path fill="#fff" d="M32 16c0 8.837-7.163 16-16 16s-16-7.163-16-16c0-8.837 7.163-16 16-16s16 7.163 16 16z"></path>
<path fill="#f8dfcd" d="M22.152 22.468c-0.344-0.003-0.676-0.041-0.998-0.11l0.033 0.006 1.886-2.058c1.212-0.39 2.096-1.509 2.096-2.845 0-1.659-1.352-3.003-3.018-3.003-0.154 0-0.302 0.023-0.45 0.045 0.285-0.603 0.451-1.311 0.453-2.057v-0c0-2.765-2.253-5.008-5.032-5.008-0.002 0-0.004 0-0.006 0-1.892 0-3.541 1.044-4.401 2.587l-0.013 0.026c-0.183-0.064-0.395-0.102-0.615-0.105l-0.001-0c-0.001 0-0.002 0-0.003 0-1.108 0-2.007 0.897-2.008 2.005v0c0 0.613 0.281 1.153 0.713 1.521-0.072-0.005-0.14-0.022-0.213-0.022-1.944 0-3.519 1.57-3.519 3.507 0 1.465 0.902 2.718 2.183 3.242l1.873 2.236c-0.178 0.017-0.354 0.034-0.536 0.034-3.054 0-5.53-2.468-5.53-5.512 0-2.143 1.231-3.995 3.024-4.905-0.001-0.034-0.005-0.066-0.005-0.1 0-2.092 1.607-3.808 3.657-3.992 1.297-1.548 3.232-2.526 5.395-2.526 0.003 0 0.006 0 0.008 0h-0c3.891 0 7.045 3.139 7.045 7.011 0 0.143-0.010 0.284-0.018 0.425 1.785 0.769 3.034 2.535 3.034 4.594 0 2.764-2.252 5.005-5.030 5.005zM11.899 20.711c0 0.001 0 0.002-0.001 0.002l-0.001 0 0.002-0.003z"></path>
<path fill="#da411a" d="M15.21 23.073v-5.492c0-0.522 0.425-0.945 0.95-0.945s0.95 0.423 0.95 0.945v5.485l1.057-1.052c0.172-0.171 0.41-0.277 0.672-0.277s0.499 0.106 0.672 0.277l-0-0c0.172 0.171 0.278 0.407 0.278 0.669s-0.106 0.498-0.278 0.668l-0 0-2.681 2.668c-0.172 0.171-0.41 0.277-0.672 0.277s-0.499-0.106-0.672-0.277l0 0-2.688-2.674c-0.172-0.171-0.278-0.407-0.278-0.668s0.106-0.497 0.278-0.668l0-0c0.172-0.17 0.409-0.276 0.671-0.276s0.499 0.105 0.671 0.276l-0-0 1.070 1.065z"></path>
</svg>
<svg id="icon-icon-hiw-build-your-doc" width="32" height="32" viewBox="0 0 32 32" x="96" y="0">
<path fill="#fff" d="M32 16c0 8.837-7.163 16-16 16s-16-7.163-16-16c0-8.837 7.163-16 16-16s16 7.163 16 16z"></path>
<path fill="#f8dfcd" d="M6.76 7.046v16.599h12.65v-16.599h-12.65zM6.282 6.135h13.428c0.327 0.002 0.591 0.268 0.591 0.595 0 0.001 0 0.002 0 0.003v-0 17.41c0 0.33-0.265 0.597-0.591 0.597h-13.428c-0.327-0.002-0.591-0.267-0.591-0.595 0-0.001 0-0.002 0-0.003v0-17.411c0-0.33 0.265-0.598 0.591-0.598z"></path>
<path fill="#e68460" d="M17.885 10.089h-9.405c-0.449 0-0.449-0.729 0-0.729h9.405c0.449 0 0.449 0.73 0 0.73z"></path>
<path fill="#f8dfcd" d="M11.208 10.089h-1.549c-0.449 0-0.449-0.729 0-0.729h1.549c0.449 0 0.449 0.73 0 0.73z"></path>
<path fill="#e68460" d="M17.884 15.743h-9.405c-0.449 0-0.449-0.73 0-0.73h9.404c0.449 0 0.449 0.73 0 0.73zM17.885 13.92h-9.405c-0.449 0-0.449-0.73 0-0.73h9.405c0.449 0 0.449 0.73 0 0.73zM17.885 11.913h-9.405c-0.449 0-0.449-0.729 0-0.729h9.405c0.449 0 0.449 0.73 0 0.73zM15.973 17.75h-7.377c-0.604 0-0.604-0.73 0-0.73h7.377c0.605 0 0.605 0.73 0 0.73z"></path>
<path fill="#f8dfcd" d="M16.259 11.913h-1.549c-0.449 0-0.449-0.729 0-0.729h1.549c0.449 0 0.449 0.73 0 0.73zM12.555 13.92h-1.55c-0.448 0-0.448-0.73 0-0.73h1.55c0.449 0 0.449 0.73 0 0.73zM17.892 15.743h-1.634c-0.449 0-0.449-0.73 0-0.73h1.634c0.448 0 0.448 0.73 0 0.73zM14.806 17.75h-2.285c-0.449 0-0.449-0.73 0-0.73h2.285c0.449 0 0.449 0.73 0 0.73z"></path>
<path fill="#fff" d="M19.651 26.857c-3.391 0-6.14-2.766-6.14-6.178s2.749-6.178 6.14-6.178c3.39 0 6.139 2.766 6.139 6.178s-2.749 6.178-6.14 6.178z"></path>
<path fill="#da411a" d="M25.495 20.659c0 3.189-2.569 5.774-5.738 5.774s-5.738-2.585-5.738-5.774c0-3.189 2.569-5.774 5.738-5.774s5.738 2.585 5.738 5.774z"></path>
<path fill="#fff" stroke="#fff" stroke-width="0.5" stroke-miterlimit="4" stroke-linecap="butt" stroke-linejoin="miter" d="M18.965 21.991l-1.535-1.557c-0.079-0.080-0.189-0.13-0.31-0.13s-0.231 0.050-0.31 0.13l-0 0c-0.080 0.081-0.129 0.192-0.129 0.314s0.049 0.233 0.129 0.314l-0-0 1.881 1.907c0.082 0.084 0.194 0.13 0.31 0.13l0.024-0c0.129-0.008 0.242-0.071 0.317-0.165l0.001-0.001 3.232-4.098c0.060-0.075 0.096-0.172 0.096-0.277 0-0.14-0.064-0.264-0.164-0.346l-0.001-0.001c-0.074-0.060-0.17-0.097-0.274-0.097-0.138 0-0.261 0.064-0.34 0.164l-0.001 0.001-2.927 3.71z"></path>
</svg>
<svg id="icon-arrow-hiw" width="26" height="32" viewBox="0 0 26 32" x="144" y="0">
<path fill="#ccc" d="M24.139 15.845c-0.030 0.432-0.202 0.819-0.47 1.119l0.002-0.002-0.005 0.006-12.138 13.005c-0.302 0.335-0.738 0.544-1.222 0.544-0.481 0-0.914-0.207-1.215-0.536l-0.001-0.001-0.608-0.653c-0.672-0.72-0.669-1.888 0.006-2.611l8.597-9.211h-15.357c-0.954 0-1.728-0.826-1.728-1.843s0.774-1.842 1.728-1.842h15.363l-8.603-9.218c-0.315-0.344-0.509-0.804-0.509-1.31 0-0.502 0.191-0.96 0.504-1.304l-0.001 0.002 0.608-0.651c0.302-0.331 0.735-0.538 1.216-0.538 0.485 0 0.921 0.21 1.222 0.544l0.001 0.001 12.142 13.010c0.304 0.326 0.453 0.749 0.48 1.178 0.002 0.042 0.022 0.082 0.022 0.125 0 0.064-0.027 0.125-0.034 0.187z"></path>
</svg>
</svg>
